<svg xmlns="http://www.w3.org/2000/svg" viewBox="0 0 1100 560" font-family="-apple-system,BlinkMacSystemFont,'Segoe UI',sans-serif">
  <defs>
    <linearGradient id="bgF" x1="0" y1="0" x2="0" y2="1">
      <stop offset="0" stop-color="#0b0d10"/><stop offset="1" stop-color="#0a0b0e"/>
    </linearGradient>
    <linearGradient id="accF" x1="0" y1="0" x2="1" y2="0">
      <stop offset="0" stop-color="#8b5cf6"/><stop offset="1" stop-color="#6366f1"/>
    </linearGradient>
    <filter id="shF" x="-20%" y="-20%" width="140%" height="140%">
      <feDropShadow dx="0" dy="14" stdDeviation="18" flood-color="#000" flood-opacity="0.5"/>
    </filter>
  </defs>
  <rect width="1100" height="560" fill="#05060a"/>
  <g filter="url(#shF)">
    <rect x="40" y="30" width="1020" height="500" rx="14" fill="url(#bgF)" stroke="#1f2937"/>
    <rect x="40" y="30" width="1020" height="40" rx="14" fill="#0f1217"/>
    <rect x="40" y="60" width="1020" height="10" fill="#0f1217"/>
    <circle cx="68"  cy="50" r="6" fill="#ff5f57"/>
    <circle cx="88"  cy="50" r="6" fill="#febc2e"/>
    <circle cx="108" cy="50" r="6" fill="#28c840"/>
    <text x="550" y="55" font-size="12" fill="#64748b" text-anchor="middle" font-weight="500">Cursor  ·  frontegg-support MCP</text>
    <rect x="40" y="70" width="4" height="460" fill="url(#accF)" opacity="0.6"/>

    <!-- user -->
    <g transform="translate(560, 94)">
      <text x="470" y="0" font-size="11" fill="#64748b" text-anchor="end" font-weight="700" letter-spacing="0.3">YOU</text>
      <rect x="0" y="10" width="470" height="56" rx="10" fill="#1e293b" stroke="#334155"/>
      <text x="18" y="34" font-size="13" fill="#e2e8f0">Is my Flutter Frontegg SDK up to date?</text>
      <text x="18" y="54" font-size="13" fill="#94a3b8" font-style="italic">Restrict to the flutter SDK.</text>
    </g>

    <!-- assistant -->
    <g transform="translate(70, 178)">
      <circle cx="13" cy="13" r="13" fill="url(#accF)"/>
      <text x="13" y="18" font-size="13" fill="#fff" text-anchor="middle" font-weight="700">F</text>
      <text x="34" y="18" font-size="12" fill="#94a3b8" font-weight="700" letter-spacing="0.3">FRONTEGG SUPPORT MCP</text>

      <rect x="0" y="34" width="960" height="318" rx="12" fill="#0f172a" stroke="#1f2937"/>

      <text x="20" y="66" font-size="16" fill="#f1f5f9" font-weight="700">Frontegg Auto Report</text>
      <text x="20" y="86" font-size="12" fill="#94a3b8">Detected SDK: <tspan fill="#a5b4fc" font-weight="600">flutter</tspan>    ·    Canonical: <tspan fill="#818cf8">github.com/frontegg/frontegg-flutter</tspan></text>
      <line x1="20" y1="102" x2="940" y2="102" stroke="#1e293b"/>

      <text x="20" y="128" font-size="11" fill="#64748b" font-weight="700" letter-spacing="0.5">FINDINGS · BUILD</text>

      <!-- version drift card -->
      <rect x="20" y="140" width="920" height="82" rx="8" fill="#1a1608" stroke="#3f2d06"/>
      <rect x="20" y="140" width="4" height="82" rx="2" fill="#fbbf24"/>
      <text x="38" y="162" font-size="10" fill="#fbbf24" font-weight="700" letter-spacing="0.5">LOW</text>
      <text x="82" y="162" font-size="13" fill="#f1f5f9" font-weight="600">frontegg_flutter version drift</text>
      <text x="38" y="184" font-size="12" fill="#94a3b8">pubspec.yaml — pinned <tspan font-family="ui-monospace,SFMono-Regular,Menlo,monospace" fill="#f87171">^2.0.1</tspan>, canonical release is <tspan font-family="ui-monospace,SFMono-Regular,Menlo,monospace" fill="#4ade80">2.4.0</tspan></text>
      <text x="38" y="204" font-size="12" fill="#64748b">github.com/frontegg/frontegg-flutter/blob/master/pubspec.yaml</text>

      <!-- diff -->
      <text x="20" y="244" font-size="11" fill="#64748b" font-weight="700" letter-spacing="0.5">READY-TO-APPLY DIFF · flutter.dependency.versionDrift</text>
      <rect x="20" y="256" width="920" height="80" rx="8" fill="#0a0e18" stroke="#1e293b"/>
      <g font-family="ui-monospace,SFMono-Regular,Menlo,monospace" font-size="12">
        <text x="36" y="276" fill="#64748b">--- pubspec.yaml</text>
        <text x="36" y="292" fill="#64748b">+++ pubspec.yaml</text>
        <text x="36" y="308" fill="#f87171">-  frontegg_flutter: ^2.0.1</text>
        <text x="36" y="324" fill="#4ade80">+  frontegg_flutter: ^2.4.0</text>
      </g>
    </g>

    <text x="70" y="520" font-size="11" fill="#475569"><tspan font-weight="700" fill="#64748b">EVIDENCE  </tspan>manifest parsed live from frontegg-flutter@master · cached 6h · BMAD+godmode completion-gate</text>
  </g>
</svg>
